<svg xmlns="http://www.w3.org/2000/svg" width="133.745" height="184.122" viewBox="0 0 133.745 184.122">
    <defs>
        <style>
            .cls-1,.cls-2{fill:#02645f}.cls-2,.cls-3,.cls-4,.cls-5{stroke:#fff}.cls-3,.cls-4,.cls-5{fill:none;stroke-miterlimit:10}.cls-3{stroke-width:1.39px}.cls-4{stroke-width:1.06px}.cls-5{stroke-width:1.32px}.cls-6{fill:#fff}
        </style>
    </defs>
    <g id="Logo" transform="translate(229 -16)">
        <path id="_Path_" d="M0 30.923v86.327a67.116 67.116 0 0 0 66.872 66.872 67.116 67.116 0 0 0 66.872-66.872V30.113A90.176 90.176 0 0 0 66.872 0C24.054 0 0 30.923 0 30.923z" class="cls-1" data-name="&lt;Path&gt;" transform="translate(-229 16)"/>
        <g id="Group_180" data-name="Group 180" transform="translate(-226.18 19.76)">
            <path id="_Path_2" d="M0 29.671V112.5a64.4 64.4 0 0 0 64.164 64.163 64.4 64.4 0 0 0 64.163-64.163V28.893A86.524 86.524 0 0 0 64.164 0C23.079 0 0 29.671 0 29.671z" class="cls-2" data-name="&lt;Path&gt;"/>
            <g id="Group_179" data-name="Group 179" transform="translate(4.278 4.103)">
                <path id="_Path_3" d="M2.2 29.817v80.729a60.119 60.119 0 0 0 59.886 59.944 60.119 60.119 0 0 0 59.983-59.944V29.117A80.768 80.768 0 0 0 62.086 2.11 80.165 80.165 0 0 0 2.2 29.817z" class="cls-3" data-name="&lt;Path&gt;" transform="translate(-2.2 -2.11)"/>
            </g>
            <path id="_Path_6" d="M25.87 76.67a45.458 45.458 0 0 0 13.863 2.178 45.46 45.46 0 0 0 13.9-2.178" class="cls-4" data-name="&lt;Path&gt;" transform="translate(24.43 72.403)"/>
            <path id="_Path_7" d="M16.56 80.709a56.522 56.522 0 0 0 31.965 9.9 56.522 56.522 0 0 0 32-9.916" class="cls-5" data-name="&lt;Path&gt;" transform="translate(15.638 76.199)"/>
            <g id="_Group_" data-name="&lt;Group&gt;" transform="translate(10.091 63.152)">
                <path id="_Compound_Path_" d="M5.26 38.313l1.75-.739V34.56l-1.75-.739V32.48L13.037 36v.194l-7.777 3.5zm5.328-2.255L8.04 34.969v2.158z" class="cls-6" data-name="&lt;Compound Path&gt;" transform="translate(-5.124 -32.48)"/>
                <path id="_Compound_Path_2" d="M5.269 41.011l2.742-1.672v-1.166H5.269v-1.3h7.544a16.254 16.254 0 0 1 .117 1.944c0 2.158-1.05 3.111-2.411 3.111a2.333 2.333 0 0 1-2.2-1.478L5.25 42.392zm6.494-1.944a4.569 4.569 0 0 0 0-.875H9.1a5.969 5.969 0 0 0 0 .758c0 1.128.525 1.711 1.4 1.711s1.264-.524 1.264-1.594z" class="cls-6" data-name="&lt;Compound Path&gt;" transform="translate(-5.133 -28.334)"/>
                <path id="_Compound_Path_3" d="M11.7 43.974H5.26v-1.3h6.44V40.26h1.186v6.14H11.7z" class="cls-6" data-name="&lt;Compound Path&gt;" transform="translate(-5.124 -25.133)"/>
                <path id="_Compound_Path_4" d="M5.26 44.32h7.622v1.322H5.26z" class="cls-6" data-name="&lt;Compound Path&gt;" transform="translate(-5.124 -21.299)"/>
                <path id="_Compound_Path_5" d="M11.7 47.493H9.46v2.936H8.313v-2.936H5.26v-1.3h7.622v4.647H11.7z" class="cls-6" data-name="&lt;Compound Path&gt;" transform="translate(-5.124 -19.533)"/>
                <path id="_Compound_Path_6" d="M5.26 49.51h7.622v1.3H5.26z" class="cls-6" data-name="&lt;Compound Path&gt;" transform="translate(-5.124 -16.398)"/>
                <path id="_Compound_Path_7" d="M5.19 55.249a3.889 3.889 0 1 1 7.777 0 4.764 4.764 0 0 1-.7 2.45l-1.108-.447a4.3 4.3 0 0 0 .583-1.944 2.547 2.547 0 0 0-2.625-2.7A2.567 2.567 0 0 0 6.4 55.326a4.316 4.316 0 0 0 .6 2.08l-1.11.394a4.764 4.764 0 0 1-.7-2.547z" class="cls-6" data-name="&lt;Compound Path&gt;" transform="translate(-5.19 -14.651)"/>
                <path id="_Compound_Path_8" d="M5.25 55.647l7.622-.117v1.3l-7.622.117z" class="cls-6" data-name="&lt;Compound Path&gt;" transform="translate(-5.133 -10.713)"/>
                <path id="_Compound_Path_9" d="M5.921 63.056l1.652-.956-.373-2.991-1.8-.467-.16-1.322 8.088 2.508v.194L6.1 64.475zm5.016-2.878l-2.644-.758.253 2.139z" class="cls-6" data-name="&lt;Compound Path&gt;" transform="translate(-5.142 -9.022)"/>
                <path id="_Compound_Path_10" d="M5.94 62.944L13.29 61l.331 1.264-6.2 1.653.875 3.228-1.147.311z" class="cls-6" data-name="&lt;Compound Path&gt;" transform="translate(-4.481 -5.547)"/>
                <path id="_Compound_Path_11" d="M7.56 68.39l6.94-3.15.544 1.186-6.944 3.15z" class="cls-6" data-name="&lt;Compound Path&gt;" transform="translate(-2.952 -1.543)"/>
                <path id="_Compound_Path_12" d="M11.445 76.035l1.944-6.689-4.238 2.547-.681-1.108 6.591-4.025.136.156-1.808 6.591L17.492 71l.681 1.108-6.611 4.025z" class="cls-6" data-name="&lt;Compound Path&gt;" transform="translate(-2.092 -.108)"/>
                <path id="_Compound_Path_13" d="M17.426 73.665l-4.9 4.122-.836-.987 4.9-4.18-1.575-1.847.894-.778 3.891 4.661-.894.778z" class="cls-6" data-name="&lt;Compound Path&gt;" transform="translate(.949 2.943)"/>
                <path id="_Compound_Path_14" d="M13.8 78.6l5.055-5.716 3.48 3.072-.778.894-2.507-2.22-1.322 1.5L20 78.071l-.758.856-2.275-1.944-1.4 1.575 2.508 2.236-.778.894z" class="cls-6" data-name="&lt;Compound Path&gt;" transform="translate(2.941 5.672)"/>
                <path id="_Compound_Path_15" d="M16.71 81.339L20.988 75l1.069.719-3.6 5.328 2.78 1.944-.661.992z" class="cls-6" data-name="&lt;Compound Path&gt;" transform="translate(5.689 7.674)"/>
                <path id="_Compound_Path_16" d="M19.7 83.465l3.422-6.805 1.167.583-2.9 5.833 2.994 1.5-.525 1.05z" class="cls-6" data-name="&lt;Compound Path&gt;" transform="translate(8.513 9.241)"/>
                <path id="_Compound_Path_17" d="M22.87 85.077L25.592 78l1.205.467-2.722 7.116z" class="cls-6" data-name="&lt;Compound Path&gt;" transform="translate(11.506 10.507)"/>
                <path id="_Compound_Path_18" d="M31.966 83.327l-.778 3.228a4.939 4.939 0 0 1-2.955.136 3.942 3.942 0 1 1 1.944-7.641 4.842 4.842 0 0 1 2.45 1.4l-.817.875a3.889 3.889 0 0 0-1.847-1.108 2.586 2.586 0 0 0-3.286 1.944 2.683 2.683 0 0 0 1.945 3.339 2.916 2.916 0 0 0 1.575 0l.35-1.458-1.73-.428.272-1.108z" class="cls-6" data-name="&lt;Compound Path&gt;" transform="translate(13.765 11.382)"/>
                <path id="_Compound_Path_19" d="M29.65 87.082l.681-7.6 4.628.369v1.186l-3.344-.272-.156 1.944 3.014.233v1.147l-3.014-.233-.175 2.1 3.344.272v1.186z" class="cls-6" data-name="&lt;Compound Path&gt;" transform="translate(17.909 11.904)"/>
                <path id="_Compound_Path_20" d="M39.831 87.2l-5.094-4.666.369 4.88H33.8l-.583-7.777h.214l5.019 4.743-.369-4.8 1.3-.1.583 7.777z" class="cls-6" data-name="&lt;Compound Path&gt;" transform="translate(21.28 11.904)"/>
                <path id="_Compound_Path_21" d="M42.577 86.486a3.942 3.942 0 0 1-1.944-7.641 4.763 4.763 0 0 1 2.547 0l-.175 1.186a4.3 4.3 0 0 0-2.1 0 2.722 2.722 0 0 0 1.3 5.269 4.336 4.336 0 0 0 1.944-1.089l.642.972a4.764 4.764 0 0 1-2.217 1.3z" class="cls-6" data-name="&lt;Compound Path&gt;" transform="translate(25.475 11.14)"/>
                <path id="_Compound_Path_22" d="M44.036 86.148L41.1 79.129l4.3-1.789.467 1.089-3.017 1.283.778 1.847 2.8-1.167.447 1.05-2.8 1.167.817 1.944 3.092-1.3.467 1.089z" class="cls-6" data-name="&lt;Compound Path&gt;" transform="translate(28.722 9.883)"/>
                <path id="_Compound_Path_23" d="M52.67 80.515l-1.594-1.03-2.489 1.715.389 1.944-1.108.758-1.478-8.365.156-.1 7.254 4.378zM47.809 77.4l.544 2.7 1.789-1.225z" class="cls-6" data-name="&lt;Compound Path&gt;" transform="translate(33.718 8.089)"/>
                <path id="_Compound_Path_24" d="M58.129 77.606l-6.922-.331 3.383 3.519-.933.894-5.347-5.58.117-.175 6.825.311-3.325-3.48.933-.894 5.347 5.58z" class="cls-6" data-name="&lt;Compound Path&gt;" transform="translate(35.531 4.718)"/>
                <path id="_Compound_Path_25" d="M58.717 75.858a21.041 21.041 0 0 1-1.4 1.692l-6.027-4.434a18.027 18.027 0 0 1 1.147-1.789c1.789-2.43 4.064-2.586 5.716-1.38a3.889 3.889 0 0 1 .564 5.911zm-5.25-3.889a6.63 6.63 0 0 0-.525.817l4.278 3.15a6.279 6.279 0 0 0 .7-.836 2.722 2.722 0 1 0-4.453-3.131z" class="cls-6" data-name="&lt;Compound Path&gt;" transform="translate(38.345 2.208)"/>
                <path id="_Compound_Path_26" d="M62.451 68.795a3.941 3.941 0 1 1-7.233-3.13 4.764 4.764 0 0 1 1.614-1.944l.836.856a4.3 4.3 0 0 0-1.342 1.633 2.722 2.722 0 0 0 5 2.139 4.336 4.336 0 0 0 .272-2.139h1.167a4.764 4.764 0 0 1-.311 2.586z" class="cls-6" data-name="&lt;Compound Path&gt;" transform="translate(41.747 -2.979)"/>
                <path id="_Compound_Path_27" d="M63.854 64.607a3.772 3.772 0 0 1-4.705 2.8 3.889 3.889 0 0 1-2.937-4.707 3.772 3.772 0 0 1 4.725-2.8 3.889 3.889 0 0 1 2.917 4.705zm-6.514-1.594a2.8 2.8 0 1 0 3.267-1.75 2.547 2.547 0 0 0-3.267 1.75z" class="cls-6" data-name="&lt;Compound Path&gt;" transform="translate(42.891 -6.724)"/>
                <path id="_Compound_Path_28" d="M64.692 56.134h-4.569l3.539 2.547v.156l-3.733 2.275 4.569.253v1.283l-7.777-.622v-.194l5.172-3.189-4.92-3.543v-.21h7.777z" class="cls-6" data-name="&lt;Compound Path&gt;" transform="translate(43.473 -11.317)"/>
                <path id="_Compound_Path_29" d="M62.051 54.1v.758h2.489v1.3h-7.583a15.706 15.706 0 0 1-.117-1.944c0-2.1 1.147-3.169 2.567-3.169a2.664 2.664 0 0 1 2.644 3.055zm-4.025 0a5.679 5.679 0 0 0 0 .856h2.78v-.719c0-1.167-.622-1.711-1.478-1.711a1.419 1.419 0 0 0-1.3 1.478z" class="cls-6" data-name="&lt;Compound Path&gt;" transform="translate(43.586 -14.943)"/>
                <path id="_Compound_Path_30" d="M64.618 50.137a2.761 2.761 0 0 1-3.053 3.033H56.86v-1.3h4.608c1.3 0 1.944-.642 1.944-1.75s-.661-1.75-1.944-1.75H56.86v-1.3h4.705a2.819 2.819 0 0 1 3.053 3.072z" class="cls-6" data-name="&lt;Compound Path&gt;" transform="translate(43.605 -18.717)"/>
                <path id="_Compound_Path_31" d="M58.046 45.471h6.436v1.361h-6.436v2.43H56.86v-6.2h1.186z" class="cls-6" data-name="&lt;Compound Path&gt;" transform="translate(43.605 -22.489)"/>
                <path id="_Compound_Path_32" d="M64.5 42.793h-7.64v-1.3h7.622z" class="cls-6" data-name="&lt;Compound Path&gt;" transform="translate(43.605 -23.971)"/>
                <path id="_Compound_Path_33" d="M64.713 37.226l-5.036 4.783h4.88v1.3H56.78V43.1l4.958-4.705h-4.8v-1.3h7.777z" class="cls-6" data-name="&lt;Compound Path&gt;" transform="translate(43.529 -28.127)"/>
                <path id="_Compound_Path_34" d="M60.467 32.49h3.325a4.939 4.939 0 0 1 .836 2.936 3.889 3.889 0 1 1-7.777 0 4.861 4.861 0 0 1 .8-2.7l1.031.6a3.889 3.889 0 0 0-.642 2.042 2.586 2.586 0 0 0 2.742 2.722 2.683 2.683 0 0 0 2.78-2.7 2.916 2.916 0 0 0-.369-1.536h-1.579v1.766h-1.147z" class="cls-6" data-name="&lt;Compound Path&gt;" transform="translate(43.595 -32.471)"/>
            </g>
            <g id="_Group_2" data-name="&lt;Group&gt;" transform="translate(16.778 25.43)">
                <path id="_Compound_Path_35" d="M11.431 18.493v2.294c0 .136.136.369.331.369h.6v.311H8.689v-.311H9c.408 0 .486 0 .525-.35s0-1.944 0-3.325v-3.519c0-.214-.136-.253-.369-.253h-.428V13.4h3.092a4.1 4.1 0 0 1 2.819.642 2.294 2.294 0 0 1 .856 1.828c0 1.419-1.128 2.372-3.111 2.372h-.953zm0-.894a3.383 3.383 0 0 0 .719 0 1.789 1.789 0 0 0 1.205-.8 2.275 2.275 0 0 0 .292-1.244 1.75 1.75 0 0 0-1.653-1.944 2.255 2.255 0 0 0-.544 0z" class="cls-6" data-name="&lt;Compound Path&gt;" transform="translate(-8.629 -12.813)"/>
                <path id="_Compound_Path_36" d="M13.834 16.249V14.3c0-.311-.156-.583-.331-.583h-.389v-.307h3.928a2.975 2.975 0 0 1 2.08.778 1.828 1.828 0 0 1 .661 1.283 2.217 2.217 0 0 1-2.158 2.255 1.575 1.575 0 0 1 .778.622c.156.194.8 1.244.894 1.38s.7.992.933 1.264a1.478 1.478 0 0 0 .856.253v.389h-2.411a9.722 9.722 0 0 1-1.283-1.944c-.408-.8-.875-1.672-1.439-1.672h-.408V20.6c0 .214.117.467.292.467h.486v.292s0 .1-.194.1h-3.19c-.136 0 0 0 0-.117v-.272h.35c.253 0 .467 0 .467-.369v-3.382zm1.653 1.264h.467a2.08 2.08 0 0 0 1.478-3.344 2.061 2.061 0 0 0-1.3-.525.681.681 0 0 0-.447.1.506.506 0 0 0-.136.311z" class="cls-6" data-name="&lt;Compound Path&gt;" transform="translate(-4.615 -12.766)"/>
                <path id="_Compound_Path_37" d="M20.26 17.2a7.777 7.777 0 0 0 1.205 0 .972.972 0 0 0 .544-.369 1.5 1.5 0 0 0 .272-.739v-.1h.311a11.88 11.88 0 0 0 0 1.225v1.342H22.3a3.519 3.519 0 0 0-.233-.6.953.953 0 0 0-.642-.408 8.127 8.127 0 0 0-1.205 0v2.644c0 .6.136.817.292.894a2.644 2.644 0 0 0 .992.1h.933a1.808 1.808 0 0 0 .894-.389 13.475 13.475 0 0 0 1.205-1.264h.117l.194.117-.525 1.769a.253.253 0 0 1-.253.175h-6.492s-.1 0-.1-.136V21.2a.1.1 0 0 1 .117-.1h.35c.544 0 .583 0 .583-.486v-6.429a.531.531 0 0 0-.486-.467h-.467v-.408h6.358s.428 1.769.486 1.944 0 0 0 .117h-.194a.1.1 0 0 1-.136 0 12.852 12.852 0 0 0-1.38-1.322 1.944 1.944 0 0 0-.894-.311H20.26z" class="cls-6" data-name="&lt;Compound Path&gt;" transform="translate(-.27 -12.86)"/>
                <path id="_Compound_Path_38" d="M22.593 19.21a3.13 3.13 0 0 0 .467 1.322 1.73 1.73 0 0 0 1.478.8 1.4 1.4 0 0 0 1.478-1.3c0-.972-.194-1.264-1.711-1.828a6.3 6.3 0 0 1-1.711-1.031 2.2 2.2 0 0 1-.584-1.673 1.944 1.944 0 0 1 .875-1.73 2.508 2.508 0 0 1 1.692-.564 4.219 4.219 0 0 1 1.555.233.214.214 0 0 0 .272 0l.156-.156a.233.233 0 0 1 .175 0 1.237 1.237 0 0 1 .117.194l.194 1.944h-.408a3.558 3.558 0 0 0-.739-1.225 1.439 1.439 0 0 0-1.186-.486 1.225 1.225 0 0 0-1.244 1.069 1.361 1.361 0 0 0 .311 1.089 3.889 3.889 0 0 0 1.555.758 3.772 3.772 0 0 1 1.5.894 2.119 2.119 0 0 1 .642 1.75 2.508 2.508 0 0 1-2.586 2.605 3.461 3.461 0 0 1-2.1-.506.564.564 0 0 0-.272-.136s-.117 0-.194.194-.136.136-.214.136-.175 0-.156-.194l.194-2.236z" class="cls-6" data-name="&lt;Compound Path&gt;" transform="translate(3.95 -12.966)"/>
                <path id="_Compound_Path_39" d="M26.665 16.7v-2.552a.418.418 0 0 0-.389-.408h-.564v-.35h3.694c.175 0 0 0 0 .1v.292h-.35c-.292 0-.467 0-.467.311V20.8c0 .1.175.428.408.428h.486v.331h-3.771v-.311h.35c.233 0 .486 0 .525-.311s0-2.722 0-3.344z" class="cls-6" data-name="&lt;Compound Path&gt;" transform="translate(7.422 -12.785)"/>
                <path id="_Compound_Path_40" d="M29.416 16.243v-2.158a.355.355 0 0 0-.389-.331h-.583V13.4h3.694a5.833 5.833 0 0 1 3.986 1.069 3.714 3.714 0 0 1 1.244 2.858 4.2 4.2 0 0 1-1.168 3.096 5.386 5.386 0 0 1-3.889 1.244h-3.867c-.156 0 0 0 0-.1v-.311h.6c.214 0 .35 0 .369-.292s0-2.9 0-3.791zm1.769 1.147v2.878a1.05 1.05 0 0 0 .194.642c.136.214.544.292.933.292a2.858 2.858 0 0 0 2.2-1.147 4.55 4.55 0 0 0 .914-2.7 4.005 4.005 0 0 0-.953-2.567 3.48 3.48 0 0 0-2.333-1.069 1.361 1.361 0 0 0-.661 0c-.175 0-.233.272-.233.506v2.217z" class="cls-6" data-name="&lt;Compound Path&gt;" transform="translate(10.018 -12.799)"/>
                <path id="_Compound_Path_41" d="M36.51 17.2a7.777 7.777 0 0 0 1.205 0 .972.972 0 0 0 .544-.369 1.5 1.5 0 0 0 .272-.739v-.1h.311a11.88 11.88 0 0 0 0 1.225v1.343h-.292a3.52 3.52 0 0 0-.233-.6.953.953 0 0 0-.642-.408 8.127 8.127 0 0 0-1.205 0v2.644c0 .6.136.817.292.894a2.644 2.644 0 0 0 .992.1h.933a1.808 1.808 0 0 0 .894-.389 13.475 13.475 0 0 0 1.205-1.264h.114l.194.117-.525 1.769a.253.253 0 0 1-.253.175h-6.489s-.1 0-.1-.136V21.2a.1.1 0 0 1 .117-.1h.408c.544 0 .583 0 .583-.486v-6.429a.531.531 0 0 0-.486-.467h-.467v-.408h6.2s.428 1.769.486 1.944 0 0 0 .117h-.188a.1.1 0 0 1-.136 0 12.852 12.852 0 0 0-1.38-1.322 1.944 1.944 0 0 0-.894-.311h-1.557z" class="cls-6" data-name="&lt;Compound Path&gt;" transform="translate(15.075 -12.86)"/>
                <path id="_Compound_Path_42" d="M45.391 18.25v-2.217a8.741 8.741 0 0 0-.1-1.789.622.622 0 0 0-.622-.467H44.3v-.389h2.722v.389h-.331c-.194 0-.311.194-.35.622 0 .8-.272 3.441-.272 5v1.944c0 .175 0 .389-.175.389a.622.622 0 0 1-.467-.194 29.867 29.867 0 0 1-1.478-1.653l-1.944-2.392c-.194-.233-1.828-2.255-2.1-2.644v2.372c0 .972.1 2.43.117 2.878s.233 1.031.739 1.031h.292v.389h-2.681v-.408h.408c.253 0 .447-.369.506-1.167 0-.233.1-2.1.1-3.889V15c0-.7-.428-1.361-1.011-1.361h-.295v-.309h2.489a.408.408 0 0 1 .35.156l2.722 3.344 1.944 2.508z" class="cls-6" data-name="&lt;Compound Path&gt;" transform="translate(19.183 -12.842)"/>
                <path id="_Compound_Path_43" d="M46.472 14.131h-.408a5.23 5.23 0 0 0-1.575.194 7.972 7.972 0 0 0-1.069 1.322h-.37v-.1c.136-.486.525-2.042.564-2.275s0-.194.175-.194.117 0 .214.175a.992.992 0 0 0 .778.292h5.289a1.73 1.73 0 0 0 .856-.292c.117-.117.194-.175.272-.175s.117 0 .136.194l.35 2.333v.1h-.254l-.117-.1a8.088 8.088 0 0 0-1.013-1.318 5.172 5.172 0 0 0-1.614-.233H48.3v6.864a.444.444 0 0 0 .408.467h.525c.1 0 .117 0 .117.117v.272h-3.87c-.194 0-.1 0-.1-.136v-.35h.6a.369.369 0 0 0 .408-.35v-4.083z" class="cls-6" data-name="&lt;Compound Path&gt;" transform="translate(23.877 -13.079)"/>
                <path id="_Compound_Path_44" d="M49.23 16.7v-2.552a.418.418 0 0 0-.389-.408h-.564v-.35h3.694c.175 0 0 0 0 .1v.292h-.35c-.292 0-.467 0-.467.311V20.8c0 .1.175.428.408.428h.311v.331H48.1v-.311h.35c.233 0 .486 0 .525-.311s0-2.722 0-3.344z" class="cls-6" data-name="&lt;Compound Path&gt;" transform="translate(28.566 -12.785)"/>
                <path id="_Compound_Path_45" d="M53.088 18.72a14.25 14.25 0 0 0-.681 2.236c0 .253.1.544.467.544h.544v.253s0 .136-.1.136h-2.874c-.156 0 0 0 0-.156V21.4h.311a.992.992 0 0 0 .8-.525c.156-.253.992-2.294 1.38-3.325 0-.233 1.05-2.761 1.147-3.092a.467.467 0 0 0 0-.408.33.33 0 0 1 0-.156l.117-.1a3.694 3.694 0 0 0 1.322-.583s0-.1.156-.1 0 0 .136.194c.233.739 1.147 3.383 1.361 4.122s1.03 3.111 1.205 3.422a.875.875 0 0 0 .681.525h.311v.331s0 .156-.1.156h-3.578c-.253 0-.136 0-.136-.156v-.331h.331c.311 0 .428-.117.35-.428s-.564-1.944-.7-2.353zm2.392-.544l-.88-3.112c0-.175 0-.253-.136-.253s-.1 0-.136.156-1.069 2.936-1.167 3.228z" class="cls-6" data-name="&lt;Compound Path&gt;" transform="translate(30.793 -13.04)"/>
                <path id="_Compound_Path_46" d="M58.225 17.949v3.208h2.392c.622 0 1.439-1.478 1.614-1.944 0 0 0-.1.136 0h.233v.1c0 .1-.506 1.944-.583 2.333h-6.533c-.156 0 0 0 0-.1v-.292h.369c.428 0 .506-.156.506-.292v-6.746c0-.253 0-.428-.35-.428h-.428v-.408h3.578a.1.1 0 0 1 .1.117v.272h-.661c-.369 0-.408.117-.408.428v2.761z" class="cls-6" data-name="&lt;Compound Path&gt;" transform="translate(35.553 -12.794)"/>
                <path id="_Compound_Path_47" d="M15.895 23.705v-2.547a.418.418 0 0 0-.389-.408h-.564v-.35h3.694c.175 0 0 0 0 .1v.292h-.35c-.292 0-.467 0-.467.311v6.708c0 .1.175.428.408.428h.486v.331h-3.771v-.311h.35c.233 0 .486 0 .525-.311s0-2.722 0-3.344z" class="cls-6" data-name="&lt;Compound Path&gt;" transform="translate(-2.749 -6.165)"/>
                <path id="_Compound_Path_48" d="M25.072 25.241v-2.217a8.741 8.741 0 0 0-.1-1.789.622.622 0 0 0-.622-.467h-.369v-.388h2.722v.389h-.428c-.194 0-.311.194-.35.622 0 .8-.272 3.441-.272 5v1.944c0 .175 0 .389-.175.389a.622.622 0 0 1-.467-.194 29.867 29.867 0 0 1-1.478-1.653l-1.944-2.392c-.194-.233-1.828-2.255-2.1-2.644v2.469c0 .972.1 2.43.117 2.878s.233 1.031.739 1.031h.1v.381h-2.683v-.4h.408c.253 0 .447-.369.506-1.167 0-.233.1-2.1.1-3.889v-1.05c0-.7-.428-1.361-1.011-1.361h-.295v-.311h2.489a.408.408 0 0 1 .35.156l2.722 3.344 1.944 2.508z" class="cls-6" data-name="&lt;Compound Path&gt;" transform="translate(-.28 -6.184)"/>
                <path id="_Compound_Path_49" d="M23.855 23.705v-2.547a.418.418 0 0 0-.389-.408H22.9v-.35h3.7c.175 0 0 0 0 .1v.292h-.35c-.292 0-.467 0-.467.311v6.708c0 .1.175.428.408.428h.486v.331H22.9v-.311h.272c.233 0 .486 0 .525-.311s0-2.722 0-3.344z" class="cls-6" data-name="&lt;Compound Path&gt;" transform="translate(4.768 -6.165)"/>
                <path id="_Compound_Path_50" d="M28.762 21.141h-.408a5.23 5.23 0 0 0-1.575.194 7.972 7.972 0 0 0-1.069 1.322h-.37v-.1c.136-.486.525-2.042.564-2.275s0-.194.175-.194.117 0 .214.175a.992.992 0 0 0 .778.292h5.289a1.73 1.73 0 0 0 .856-.292c.117-.117.194-.175.272-.175s.117 0 .136.194l.35 2.333v.1h-.254l-.117-.1a8.088 8.088 0 0 0-1.011-1.315 5.172 5.172 0 0 0-1.614-.233h-.467v6.864a.444.444 0 0 0 .408.467h.525c.1 0 .117 0 .117.117v.272h-3.868c-.194 0-.1 0-.1-.136V28.3h.6a.369.369 0 0 0 .408-.35v-4.083z" class="cls-6" data-name="&lt;Compound Path&gt;" transform="translate(7.152 -6.459)"/>
                <path id="_Compound_Path_51" d="M31.491 23.705v-2.547a.418.418 0 0 0-.389-.408h-.564v-.35h3.694c.175 0 0 0 0 .1v.292h-.467c-.292 0-.467 0-.467.311v6.708c0 .1.175.428.408.428h.486v.331h-3.77v-.311h.35c.233 0 .486 0 .525-.311s0-2.722 0-3.344z" class="cls-6" data-name="&lt;Compound Path&gt;" transform="translate(11.87 -6.165)"/>
                <path id="_Compound_Path_52" d="M35.378 25.72a14.251 14.251 0 0 0-.681 2.236c0 .253.1.544.467.544h.544v.253s0 .136-.1.136h-2.874c-.156 0 0 0 0-.156V28.4h.311a.992.992 0 0 0 .8-.525c.156-.253.992-2.294 1.38-3.325 0-.233 1.05-2.761 1.147-3.092a.467.467 0 0 0 0-.408.33.33 0 0 1 0-.156l.117-.1a3.694 3.694 0 0 0 1.322-.583s0-.1.156-.1 0 0 .136.194c.233.739 1.147 3.383 1.361 4.122s1.03 3.111 1.205 3.422a.875.875 0 0 0 .681.525h.408v.331s0 .156-.1.156h-3.577c-.253 0-.136 0-.136-.156v-.331h.331c.311 0 .428-.117.35-.428s-.564-1.944-.7-2.353zm2.469-.467l-.875-3.111c0-.175 0-.253-.136-.253s-.1 0-.136.156-1.069 2.936-1.167 3.228z" class="cls-6" data-name="&lt;Compound Path&gt;" transform="translate(14.069 -6.429)"/>
                <path id="_Compound_Path_53" d="M40.4 21.141h-.408a5.23 5.23 0 0 0-1.575.194 7.972 7.972 0 0 0-1.069 1.322h-.368v-.1c.136-.486.525-2.042.564-2.275s0-.194.175-.194.117 0 .214.175a.992.992 0 0 0 .778.292H44a1.731 1.731 0 0 0 .856-.292c.117-.117.194-.175.272-.175s.117 0 .136.194l.35 2.333v.1h-.254l-.117-.1a8.089 8.089 0 0 0-1.011-1.315 5.172 5.172 0 0 0-1.614-.233h-.388v6.864a.444.444 0 0 0 .408.467h.525c.1 0 .117 0 .117.117v.272h-3.87c-.194 0-.1 0-.1-.136V28.3h.6a.369.369 0 0 0 .408-.35v-4.083z" class="cls-6" data-name="&lt;Compound Path&gt;" transform="translate(18.144 -6.459)"/>
                <path id="_Compound_Path_54" d="M43.094 23.705v-2.547a.418.418 0 0 0-.389-.408h-.564v-.35h3.694c.175 0 0 0 0 .1v.292h-.35c-.292 0-.467 0-.467.311v6.708c0 .1.175.428.408.428h.447v.331H42.1v-.311h.35c.233 0 .486 0 .525-.311s0-2.722 0-3.344z" class="cls-6" data-name="&lt;Compound Path&gt;" transform="translate(22.9 -6.165)"/>
                <path id="_Compound_Path_55" d="M50.118 20.389h2.936c.117 0 0 0 0 .1v.292h-.272a1.011 1.011 0 0 0-.875.6c-.467.8-.972 2.2-1.419 3.169-.292.642-1.633 3.791-1.828 4.122s-.136.194-.272.194-.194-.136-.272-.292c-.428-.933-1.5-3.772-1.828-4.589s-.778-2.392-1.011-2.819-.253-.389-.506-.389h-.311v-.407h3.889c.194 0 .117 0 .117.1v.369h-.506c-.292 0-.506.136-.506.292a1.827 1.827 0 0 0 0 .408 13.967 13.967 0 0 0 .8 2.508l.894 2.625c.35-.8.914-2.255 1.069-2.683s.583-1.575.778-2.1a1.614 1.614 0 0 0 .117-.642.447.447 0 0 0-.486-.389h-.447v-.1z" class="cls-6" data-name="&lt;Compound Path&gt;" transform="translate(25.208 -6.193)"/>
                <path id="_Compound_Path_56" d="M51.9 24.209a7.778 7.778 0 0 0 1.205 0 .972.972 0 0 0 .544-.369 1.5 1.5 0 0 0 .272-.739V23h.311a11.882 11.882 0 0 0 0 1.225v1.345h-.292a3.519 3.519 0 0 0-.233-.6.953.953 0 0 0-.642-.408 8.128 8.128 0 0 0-1.205 0V27.2c0 .6.136.817.292.894a2.644 2.644 0 0 0 .992.1h.933a1.808 1.808 0 0 0 .894-.389 13.473 13.473 0 0 0 1.205-1.264h.117l.194.117-.525 1.769a.253.253 0 0 1-.253.175h-6.492s-.1 0-.1-.136v-.253a.1.1 0 0 1 .117-.1h.35c.544 0 .583 0 .583-.486v-6.432a.531.531 0 0 0-.486-.467h-.467v-.408h6.358s.428 1.769.486 1.944 0 0 0 .117h-.194a.1.1 0 0 1-.136 0 12.853 12.853 0 0 0-1.38-1.322 1.944 1.944 0 0 0-.894-.311H51.9z" class="cls-6" data-name="&lt;Compound Path&gt;" transform="translate(29.609 -6.24)"/>
            </g>
            <g id="_Group_3" data-name="&lt;Group&gt;" transform="translate(32.208 53.703)">
                <path id="_Path_12" d="M71.172 65.846L43.951 38.625 48.52 33.9l4.705 4.705-3.5 3.5 3.15 3.15 6.65-6.65L48.52 27.62 37.593 38.547 67.964 69a27.513 27.513 0 1 1-38.887 0l18.335-18.339-3.15-3.15-18.335 18.335a31.965 31.965 0 1 0 45.206 0z" class="cls-6" data-name="&lt;Path&gt;" transform="translate(-16.565 -27.62)"/>
                <g id="_Group_4" data-name="&lt;Group&gt;" transform="translate(9.031 37.559)">
                    <path id="_Path_13" d="M58.051 54.831a19.074 19.074 0 0 1-29.768 23.118l-4.083 1.4A22.982 22.982 0 0 0 61.551 53.12z" class="cls-6" data-name="&lt;Path&gt;" transform="translate(-18.385 -41.098)"/>
                    <path id="_Path_14" d="M27.491 79.161A19.074 19.074 0 0 1 57.3 56.062l4.083-1.4A22.982 22.982 0 0 0 24.01 80.911z" class="cls-6" data-name="&lt;Path&gt;" transform="translate(-21.21 -46.937)"/>
                </g>
                <path id="_Compound_Path_57" d="M65.721 53.308l-1.05-2.508-23.06 7.777a7.991 7.991 0 0 0-.933.311 7.894 7.894 0 0 0-3.072 12.327L21.72 79.226l1.05 2.508 23.079-7.952a7.894 7.894 0 0 0 3.889-12.619zM44.936 69.271a3.267 3.267 0 1 1 1.773-1.771 3.267 3.267 0 0 1-1.773 1.771z" class="cls-6" data-name="&lt;Compound Path&gt;" transform="translate(-11.697 -5.73)"/>
            </g>
        </g>
    </g>
</svg>
